<?xml version="1.0" encoding="UTF-8" standalone="no"?>
<!DOCTYPE svg PUBLIC "-//W3C//DTD SVG 1.1//EN" "http://www.w3.org/Graphics/SVG/1.1/DTD/svg11.dtd">
<svg xmlns="http://www.w3.org/2000/svg" version="1.1" viewBox="0.00 0.00 100.00 100.00">
<g stroke-width="2.00" fill="none" stroke-linecap="butt">
<path stroke="#f9838b" vector-effect="non-scaling-stroke" d="
  M 63.74 36.44
  Q 63.64 34.49 63.76 32.62
  Q 64.08 27.59 59.31 27.60
  Q 42.23 27.61 25.29 27.62
  Q 23.20 27.62 21.34 28.47
  A 2.32 2.31 77.6 0 0 20.00 30.57
  L 20.00 35.19
  A 0.56 0.55 0.0 0 0 20.56 35.74
  Q 30.10 35.76 40.01 35.75
  Q 43.60 35.74 43.62 39.33
  Q 43.62 39.43 43.62 39.52
  Q 43.64 43.13 39.95 43.08
  Q 30.54 42.95 21.09 43.16
  Q 20.07 43.18 19.97 44.19
  L 19.90 44.94
  Q 19.80 45.97 20.84 46.00
  Q 26.89 46.14 33.27 46.08
  C 39.08 46.03 39.00 54.01 33.66 53.98
  Q 27.30 53.95 20.65 54.06
  Q 19.98 54.07 19.98 54.73
  L 19.98 63.35
  Q 19.98 65.97 22.51 66.65
  L 23.61 66.94
  Q 25.76 67.51 26.21 65.33
  C 28.34 55.05 42.83 55.82 43.06 66.10
  Q 43.08 66.97 43.95 66.97
  L 59.50 66.96
  Q 60.39 66.96 60.50 66.07
  Q 61.26 59.29 67.49 58.07
  C 71.93 57.20 76.74 60.46 77.07 64.98
  Q 77.23 67.18 79.43 67.02
  L 82.14 66.83
  A 3.47 3.47 0.0 0 0 85.37 63.63
  Q 85.82 57.71 85.12 52.39
  A 2.89 2.88 -87.9 0 0 82.86 49.95
  C 80.67 49.49 78.01 48.89 76.91 46.67
  C 73.78 40.35 73.02 36.31 64.48 37.08
  Q 63.78 37.14 63.74 36.44"
/>
<path stroke="#f9838b" vector-effect="non-scaling-stroke" d="
  M 42.0306 39.0627
  A 1.96 1.96 0.0 0 0 40.0740 37.0993
  L 17.9340 37.0607
  A 1.96 1.96 0.0 0 0 15.9706 39.0173
  L 15.9694 39.7173
  A 1.96 1.96 0.0 0 0 17.9260 41.6807
  L 40.0660 41.7193
  A 1.96 1.96 0.0 0 0 42.0294 39.7627
  L 42.0306 39.0627"
/>
<path stroke="#f9838b" vector-effect="non-scaling-stroke" d="
  M 36.0010 49.4413
  A 1.43 1.43 0.0 0 0 34.5735 48.0088
  L 13.0736 47.9712
  A 1.43 1.43 0.0 0 0 11.6411 49.3987
  L 11.6390 50.5987
  A 1.43 1.43 0.0 0 0 13.0665 52.0312
  L 34.5664 52.0688
  A 1.43 1.43 0.0 0 0 35.9989 50.6413
  L 36.0010 49.4413"
/>
<path stroke="#f9838b" vector-effect="non-scaling-stroke" d="
  M 41.17 66.39
  A 6.50 6.50 0.0 0 0 34.67 59.89
  A 6.50 6.50 0.0 0 0 28.17 66.39
  A 6.50 6.50 0.0 0 0 34.67 72.89
  A 6.50 6.50 0.0 0 0 41.17 66.39"
/>
<path stroke="#f9838b" vector-effect="non-scaling-stroke" d="
  M 75.38 66.40
  A 6.47 6.47 0.0 0 0 68.91 59.93
  A 6.47 6.47 0.0 0 0 62.44 66.40
  A 6.47 6.47 0.0 0 0 68.91 72.87
  A 6.47 6.47 0.0 0 0 75.38 66.40"
/>
<path stroke="#f9838b" vector-effect="non-scaling-stroke" d="
  M 71.52 42.19
  A 4.32 3.94 74.6 0 0 68.00 39.97
  L 64.79 39.93
  Q 63.75 39.92 63.74 40.96
  L 63.73 48.21
  Q 63.73 49.11 64.63 49.11
  L 73.26 49.09
  Q 75.34 49.09 74.34 47.27
  Q 71.73 42.56 71.52 42.19"
/>
<path stroke="#f9838b" vector-effect="non-scaling-stroke" d="
  M 37.41 66.40
  A 2.74 2.74 0.0 0 0 34.67 63.66
  A 2.74 2.74 0.0 0 0 31.93 66.40
  A 2.74 2.74 0.0 0 0 34.67 69.14
  A 2.74 2.74 0.0 0 0 37.41 66.40"
/>
<path stroke="#f9838b" vector-effect="non-scaling-stroke" d="
  M 71.8152 66.2531
  A 2.90 2.68 -3.3 0 0 68.7657 63.7444
  A 2.90 2.68 -3.3 0 0 66.0248 66.5869
  A 2.90 2.68 -3.3 0 0 69.0743 69.0956
  A 2.90 2.68 -3.3 0 0 71.8152 66.2531"
/>
</g>
<path fill="#f30617" d="
  M 99.22 50.24
  A 48.91 48.91 0.0 0 1 50.31 99.15
  A 48.91 48.91 0.0 0 1 1.40 50.24
  A 48.91 48.91 0.0 0 1 50.31 1.33
  A 48.91 48.91 0.0 0 1 99.22 50.24
  Z
  M 63.74 36.44
  Q 63.64 34.49 63.76 32.62
  Q 64.08 27.59 59.31 27.60
  Q 42.23 27.61 25.29 27.62
  Q 23.20 27.62 21.34 28.47
  A 2.32 2.31 77.6 0 0 20.00 30.57
  L 20.00 35.19
  A 0.56 0.55 0.0 0 0 20.56 35.74
  Q 30.10 35.76 40.01 35.75
  Q 43.60 35.74 43.62 39.33
  Q 43.62 39.43 43.62 39.52
  Q 43.64 43.13 39.95 43.08
  Q 30.54 42.95 21.09 43.16
  Q 20.07 43.18 19.97 44.19
  L 19.90 44.94
  Q 19.80 45.97 20.84 46.00
  Q 26.89 46.14 33.27 46.08
  C 39.08 46.03 39.00 54.01 33.66 53.98
  Q 27.30 53.95 20.65 54.06
  Q 19.98 54.07 19.98 54.73
  L 19.98 63.35
  Q 19.98 65.97 22.51 66.65
  L 23.61 66.94
  Q 25.76 67.51 26.21 65.33
  C 28.34 55.05 42.83 55.82 43.06 66.10
  Q 43.08 66.97 43.95 66.97
  L 59.50 66.96
  Q 60.39 66.96 60.50 66.07
  Q 61.26 59.29 67.49 58.07
  C 71.93 57.20 76.74 60.46 77.07 64.98
  Q 77.23 67.18 79.43 67.02
  L 82.14 66.83
  A 3.47 3.47 0.0 0 0 85.37 63.63
  Q 85.82 57.71 85.12 52.39
  A 2.89 2.88 -87.9 0 0 82.86 49.95
  C 80.67 49.49 78.01 48.89 76.91 46.67
  C 73.78 40.35 73.02 36.31 64.48 37.08
  Q 63.78 37.14 63.74 36.44
  Z
  M 42.0306 39.0627
  A 1.96 1.96 0.0 0 0 40.0740 37.0993
  L 17.9340 37.0607
  A 1.96 1.96 0.0 0 0 15.9706 39.0173
  L 15.9694 39.7173
  A 1.96 1.96 0.0 0 0 17.9260 41.6807
  L 40.0660 41.7193
  A 1.96 1.96 0.0 0 0 42.0294 39.7627
  L 42.0306 39.0627
  Z
  M 36.0010 49.4413
  A 1.43 1.43 0.0 0 0 34.5735 48.0088
  L 13.0736 47.9712
  A 1.43 1.43 0.0 0 0 11.6411 49.3987
  L 11.6390 50.5987
  A 1.43 1.43 0.0 0 0 13.0665 52.0312
  L 34.5664 52.0688
  A 1.43 1.43 0.0 0 0 35.9989 50.6413
  L 36.0010 49.4413
  Z
  M 41.17 66.39
  A 6.50 6.50 0.0 0 0 34.67 59.89
  A 6.50 6.50 0.0 0 0 28.17 66.39
  A 6.50 6.50 0.0 0 0 34.67 72.89
  A 6.50 6.50 0.0 0 0 41.17 66.39
  Z
  M 75.38 66.40
  A 6.47 6.47 0.0 0 0 68.91 59.93
  A 6.47 6.47 0.0 0 0 62.44 66.40
  A 6.47 6.47 0.0 0 0 68.91 72.87
  A 6.47 6.47 0.0 0 0 75.38 66.40
  Z"
/>
<path fill="#ffffff" d="
  M 64.48 37.08
  C 73.02 36.31 73.78 40.35 76.91 46.67
  C 78.01 48.89 80.67 49.49 82.86 49.95
  A 2.89 2.88 -87.9 0 1 85.12 52.39
  Q 85.82 57.71 85.37 63.63
  A 3.47 3.47 0.0 0 1 82.14 66.83
  L 79.43 67.02
  Q 77.23 67.18 77.07 64.98
  C 76.74 60.46 71.93 57.20 67.49 58.07
  Q 61.26 59.29 60.50 66.07
  Q 60.39 66.96 59.50 66.96
  L 43.95 66.97
  Q 43.08 66.97 43.06 66.10
  C 42.83 55.82 28.34 55.05 26.21 65.33
  Q 25.76 67.51 23.61 66.94
  L 22.51 66.65
  Q 19.98 65.97 19.98 63.35
  L 19.98 54.73
  Q 19.98 54.07 20.65 54.06
  Q 27.30 53.95 33.66 53.98
  C 39.00 54.01 39.08 46.03 33.27 46.08
  Q 26.89 46.14 20.84 46.00
  Q 19.80 45.97 19.90 44.94
  L 19.97 44.19
  Q 20.07 43.18 21.09 43.16
  Q 30.54 42.95 39.95 43.08
  Q 43.64 43.13 43.62 39.52
  Q 43.62 39.43 43.62 39.33
  Q 43.60 35.74 40.01 35.75
  Q 30.10 35.76 20.56 35.74
  A 0.56 0.55 0.0 0 1 20.00 35.19
  L 20.00 30.57
  A 2.32 2.31 77.6 0 1 21.34 28.47
  Q 23.20 27.62 25.29 27.62
  Q 42.23 27.61 59.31 27.60
  Q 64.08 27.59 63.76 32.62
  Q 63.64 34.49 63.74 36.44
  Q 63.78 37.14 64.48 37.08
  Z
  M 71.52 42.19
  A 4.32 3.94 74.6 0 0 68.00 39.97
  L 64.79 39.93
  Q 63.75 39.92 63.74 40.96
  L 63.73 48.21
  Q 63.73 49.11 64.63 49.11
  L 73.26 49.09
  Q 75.34 49.09 74.34 47.27
  Q 71.73 42.56 71.52 42.19
  Z"
/>
<rect fill="#ffffff" x="-13.03" y="-2.31" transform="translate(29.00,39.39) rotate(0.1)" width="26.06" height="4.62" rx="1.96"/>
<path fill="#f30617" d="
  M 71.52 42.19
  Q 71.73 42.56 74.34 47.27
  Q 75.34 49.09 73.26 49.09
  L 64.63 49.11
  Q 63.73 49.11 63.73 48.21
  L 63.74 40.96
  Q 63.75 39.92 64.79 39.93
  L 68.00 39.97
  A 4.32 3.94 74.6 0 1 71.52 42.19
  Z"
/>
<rect fill="#ffffff" x="-12.18" y="-2.03" transform="translate(23.82,50.02) rotate(0.1)" width="24.36" height="4.06" rx="1.43"/>
<path fill="#ffffff" d="
  M 41.17 66.39
  A 6.50 6.50 0.0 0 1 34.67 72.89
  A 6.50 6.50 0.0 0 1 28.17 66.39
  A 6.50 6.50 0.0 0 1 34.67 59.89
  A 6.50 6.50 0.0 0 1 41.17 66.39
  Z
  M 37.41 66.40
  A 2.74 2.74 0.0 0 0 34.67 63.66
  A 2.74 2.74 0.0 0 0 31.93 66.40
  A 2.74 2.74 0.0 0 0 34.67 69.14
  A 2.74 2.74 0.0 0 0 37.41 66.40
  Z"
/>
<path fill="#ffffff" d="
  M 75.38 66.40
  A 6.47 6.47 0.0 0 1 68.91 72.87
  A 6.47 6.47 0.0 0 1 62.44 66.40
  A 6.47 6.47 0.0 0 1 68.91 59.93
  A 6.47 6.47 0.0 0 1 75.38 66.40
  Z
  M 71.8152 66.2531
  A 2.90 2.68 -3.3 0 0 68.7657 63.7444
  A 2.90 2.68 -3.3 0 0 66.0248 66.5869
  A 2.90 2.68 -3.3 0 0 69.0743 69.0956
  A 2.90 2.68 -3.3 0 0 71.8152 66.2531
  Z"
/>
<circle fill="#f30617" cx="34.67" cy="66.40" r="2.74"/>
<ellipse fill="#f30617" cx="0.00" cy="0.00" transform="translate(68.92,66.42) rotate(-3.3)" rx="2.90" ry="2.68"/>
</svg>
