<?xml version="1.0" standalone="no"?>
<!DOCTYPE svg PUBLIC "-//W3C//DTD SVG 20010904//EN"
 "http://www.w3.org/TR/2001/REC-SVG-20010904/DTD/svg10.dtd">
<svg version="1.0" xmlns="http://www.w3.org/2000/svg"
 width="700.000000pt" height="700.000000pt" viewBox="0 0 700.000000 700.000000"
 preserveAspectRatio="xMidYMid meet">
<metadata>
Created by potrace 1.14, written by Peter Selinger 2001-2017
</metadata>
<g transform="translate(0.000000,700.000000) scale(0.100000,-0.100000)"
fill="#000000" stroke="none">
<path d="M3368 6904 c-2 -1 -52 -5 -113 -8 -60 -4 -119 -9 -130 -11 -11 -2
-40 -7 -65 -10 -244 -29 -604 -123 -805 -211 -16 -7 -64 -27 -105 -44 -176
-73 -438 -222 -614 -348 -206 -149 -452 -372 -606 -550 -261 -302 -488 -690
-625 -1068 -42 -115 -95 -288 -109 -355 -52 -251 -52 -251 -62 -318 -3 -25 -7
-56 -9 -68 -2 -12 -6 -57 -10 -100 -3 -43 -8 -98 -11 -123 -6 -63 -6 -355 0
-415 3 -27 8 -84 11 -125 5 -65 13 -125 30 -232 3 -16 7 -43 10 -60 3 -18 8
-40 10 -48 2 -8 7 -31 10 -50 9 -53 60 -244 93 -345 101 -306 270 -643 456
-905 168 -236 436 -522 651 -693 94 -75 314 -229 395 -276 340 -199 693 -335
1055 -410 88 -18 139 -26 275 -45 190 -28 671 -28 840 -2 14 2 46 7 71 10 427
59 883 220 1261 447 96 57 302 197 351 239 12 10 63 52 112 93 262 219 536
538 705 823 29 49 60 97 68 107 8 9 12 17 8 17 -4 0 1 12 12 27 28 41 124 243
170 358 99 249 170 507 207 755 29 191 39 322 39 515 0 133 -10 331 -18 385
-3 14 -7 48 -11 75 -75 624 -366 1277 -789 1770 -139 163 -360 372 -525 497
-42 32 -80 61 -86 65 -217 165 -604 363 -903 462 -188 62 -427 120 -567 137
-16 2 -61 8 -100 13 -133 19 -211 24 -392 26 -101 1 -184 1 -185 -1z"/>
</g>
</svg>
